<?xml version="1.0" encoding="UTF-8" standalone="no"?>
<svg
   width="16"
   height="16"
   fill="currentColor"
   class="bi bi-bookmark-star-fill"
   viewBox="0 0 16 16"
   version="1.1"
   id="svg51"
   sodipodi:docname="bookmark-fill.svg"
   inkscape:export-filename="bookmark-fill.png"
   inkscape:export-xdpi="768"
   inkscape:export-ydpi="768"
   inkscape:version="1.2.2 (b0a8486541, 2022-12-01)"
   xmlns:inkscape="http://www.inkscape.org/namespaces/inkscape"
   xmlns:sodipodi="http://sodipodi.sourceforge.net/DTD/sodipodi-0.dtd"
   xmlns="http://www.w3.org/2000/svg"
   xmlns:svg="http://www.w3.org/2000/svg">
  <defs
     id="defs55" />
  <sodipodi:namedview
     id="namedview53"
     pagecolor="#505050"
     bordercolor="#ffffff"
     borderopacity="1"
     inkscape:showpageshadow="0"
     inkscape:pageopacity="0"
     inkscape:pagecheckerboard="1"
     inkscape:deskcolor="#505050"
     showgrid="false"
     inkscape:zoom="33.1875"
     inkscape:cx="7.9849341"
     inkscape:cy="8"
     inkscape:window-width="1366"
     inkscape:window-height="733"
     inkscape:window-x="0"
     inkscape:window-y="35"
     inkscape:window-maximized="1"
     inkscape:current-layer="svg51" />
  <path
     fill-rule="evenodd"
     d="M2 15.5V2a2 2 0 0 1 2-2h8a2 2 0 0 1 2 2v13.5a.5.5 0 0 1-.74.439L8 13.069l-5.26 2.87A.5.5 0 0 1 2 15.5M8.16 4.1a.178.178 0 0 0-.32 0l-.634 1.285a.18.18 0 0 1-.134.098l-1.42.206a.178.178 0 0 0-.098.303L6.58 6.993c.042.041.061.1.051.158L6.39 8.565a.178.178 0 0 0 .258.187l1.27-.668a.18.18 0 0 1 .165 0l1.27.668a.178.178 0 0 0 .257-.187L9.368 7.15a.18.18 0 0 1 .05-.158l1.028-1.001a.178.178 0 0 0-.098-.303l-1.42-.206a.18.18 0 0 1-.134-.098z"
     id="path49"
     style="fill:#ffcc00" />
</svg>
