<?xml version="1.0" encoding="UTF-8" standalone="no"?>
<svg
   width="16"
   height="16"
   fill="currentColor"
   class="bi bi-bookmark-star"
   viewBox="0 0 16 16"
   version="1.1"
   id="svg55"
   sodipodi:docname="bookmark.svg"
   inkscape:export-filename="bookmark.png"
   inkscape:export-xdpi="768"
   inkscape:export-ydpi="768"
   inkscape:version="1.2.2 (b0a8486541, 2022-12-01)"
   xmlns:inkscape="http://www.inkscape.org/namespaces/inkscape"
   xmlns:sodipodi="http://sodipodi.sourceforge.net/DTD/sodipodi-0.dtd"
   xmlns="http://www.w3.org/2000/svg"
   xmlns:svg="http://www.w3.org/2000/svg">
  <defs
     id="defs59" />
  <sodipodi:namedview
     id="namedview57"
     pagecolor="#505050"
     bordercolor="#ffffff"
     borderopacity="1"
     inkscape:showpageshadow="0"
     inkscape:pageopacity="0"
     inkscape:pagecheckerboard="1"
     inkscape:deskcolor="#505050"
     showgrid="false"
     inkscape:zoom="33.1875"
     inkscape:cx="7.9849341"
     inkscape:cy="8"
     inkscape:window-width="1366"
     inkscape:window-height="733"
     inkscape:window-x="0"
     inkscape:window-y="35"
     inkscape:window-maximized="1"
     inkscape:current-layer="svg55" />
  <path
     d="M7.84 4.1a.178.178 0 0 1 .32 0l.634 1.285a.18.18 0 0 0 .134.098l1.42.206c.145.021.204.2.098.303L9.42 6.993a.18.18 0 0 0-.051.158l.242 1.414a.178.178 0 0 1-.258.187l-1.27-.668a.18.18 0 0 0-.165 0l-1.27.668a.178.178 0 0 1-.257-.187l.242-1.414a.18.18 0 0 0-.05-.158l-1.03-1.001a.178.178 0 0 1 .098-.303l1.42-.206a.18.18 0 0 0 .134-.098z"
     id="path51"
     style="fill:#ffcc00" />
  <path
     d="M2 2a2 2 0 0 1 2-2h8a2 2 0 0 1 2 2v13.5a.5.5 0 0 1-.777.416L8 13.101l-5.223 2.815A.5.5 0 0 1 2 15.5zm2-1a1 1 0 0 0-1 1v12.566l4.723-2.482a.5.5 0 0 1 .554 0L13 14.566V2a1 1 0 0 0-1-1z"
     id="path53"
     style="fill:#ffcc00" />
</svg>
